<?xml version="1.0" encoding="UTF-8" standalone="no"?>
<svg
   version="1.1"
   id="Layer_1"
   x="0px"
   y="0px"
   width="100%"
   viewBox="0 0 354 354"
   enable-background="new 0 0 354 354"
   xml:space="preserve"
   sodipodi:docname="icon-student-checkbox.svg"
   inkscape:version="1.2.2 (b0a8486541, 2022-12-01)"
   inkscape:export-filename="icon-student-checkbox.png"
   inkscape:export-xdpi="138.85001"
   inkscape:export-ydpi="138.85001"
   xmlns:inkscape="http://www.inkscape.org/namespaces/inkscape"
   xmlns:sodipodi="http://sodipodi.sourceforge.net/DTD/sodipodi-0.dtd"
   xmlns="http://www.w3.org/2000/svg"
   xmlns:svg="http://www.w3.org/2000/svg"><defs
   id="defs181" /><sodipodi:namedview
   id="namedview179"
   pagecolor="#ffffff"
   bordercolor="#000000"
   borderopacity="0.25"
   inkscape:showpageshadow="2"
   inkscape:pageopacity="0.0"
   inkscape:pagecheckerboard="0"
   inkscape:deskcolor="#d1d1d1"
   showgrid="false"
   showguides="false"
   inkscape:zoom="1.049435"
   inkscape:cx="216.30686"
   inkscape:cy="185.33782"
   inkscape:window-width="1876"
   inkscape:window-height="1052"
   inkscape:window-x="44"
   inkscape:window-y="0"
   inkscape:window-maximized="1"
   inkscape:current-layer="Layer_1" />



<rect
   style="fill:#dbe3e2"
   id="rect331"
   width="253.60396"
   height="253.60396"
   x="5.1016507"
   y="65.804871"
   ry="10.866805" />
<g
   id="g899"
   transform="translate(-2,16)"><path
     id="rect593"
     style="fill:#008066;stroke-width:0.991732"
     d="m 201.66354,250.45391 c -1.87806,-1.87807 -4.47466,-3.03559 -7.35281,-3.03559 H -32.170596 V 134.7508 c 0,-3.5089 -2.824678,-6.33358 -6.333578,-6.33358 l -38.328778,-10e-4 c -3.5089,0 -6.334959,2.82606 -6.334959,6.33496 l 0.0014,157.35474 c 0,3.5089 2.824678,6.33357 6.333578,6.33357 92.802849,-0.0225 190.834853,-0.0243 271.143683,-0.0235 5.75629,0 10.38977,-4.63348 10.38978,-10.38977 v -30.21777 c 0,-2.87814 -1.15891,-5.47612 -3.03697,-7.35418 z"
     transform="rotate(-45)"
     sodipodi:nodetypes="sscsccccccsss" /></g></svg>
