<?xml version="1.0" encoding="UTF-8" standalone="no"?>
<svg
   width="1024"
   height="1024"
   viewBox="0 0 1024 1024"
   version="1.1"
   id="svg2"
   sodipodi:docname="pc.svg"
   inkscape:version="1.4.3 (0d15f75042, 2025-12-25)"
   inkscape:export-filename="pc.png"
   inkscape:export-xdpi="96"
   inkscape:export-ydpi="96"
   xmlns:inkscape="http://www.inkscape.org/namespaces/inkscape"
   xmlns:sodipodi="http://sodipodi.sourceforge.net/DTD/sodipodi-0.dtd"
   xmlns="http://www.w3.org/2000/svg"
   xmlns:svg="http://www.w3.org/2000/svg">
  <defs
     id="defs2" />
  <sodipodi:namedview
     id="namedview2"
     pagecolor="#ffffff"
     bordercolor="#000000"
     borderopacity="0.25"
     inkscape:showpageshadow="2"
     inkscape:pageopacity="0.0"
     inkscape:pagecheckerboard="0"
     inkscape:deskcolor="#d1d1d1"
     inkscape:zoom="0.83071236"
     inkscape:cx="544.11132"
     inkscape:cy="543.50943"
     inkscape:window-width="3388"
     inkscape:window-height="1412"
     inkscape:window-x="0"
     inkscape:window-y="0"
     inkscape:window-maximized="1"
     inkscape:current-layer="svg2" />
  <g
     id="g2">
    <path
       d="M 533.69 1001.37 C523.35,1005.57 514.35,1008.97 513.69,1008.93 C511.70,1008.81 474.54,992.83 457.00,984.54 C397.46,956.42 342.08,920.17 293.50,877.50 C278.36,864.21 241.80,827.08 230.15,813.16 C214.39,794.33 194.51,767.71 184.10,751.48 C180.58,745.99 176.92,740.35 175.97,738.95 C175.02,737.55 173.05,734.17 171.59,731.45 C170.13,728.73 166.73,722.67 164.02,718.00 C144.10,683.56 129.05,648.45 111.71,596.00 C110.04,590.95 107.40,580.39 102.45,559.00 C100.61,551.03 98.60,542.41 97.98,539.86 C96.35,533.05 93.89,520.10 93.36,515.50 C93.10,513.30 92.03,505.20 90.97,497.50 C88.27,477.76 86.18,456.33 85.02,436.31 C83.69,413.55 83.64,216.17 84.96,209.22 C86.22,202.56 88.15,198.88 93.29,193.30 C99.26,186.83 105.40,184.10 118.92,181.93 C131.24,179.95 149.74,176.28 150.84,175.60 C151.20,175.38 155.77,174.46 161.00,173.57 C166.23,172.68 174.77,170.78 180.00,169.37 C185.23,167.95 190.62,166.59 192.00,166.35 C193.38,166.11 199.68,164.31 206.00,162.34 C212.32,160.37 219.52,158.19 222.00,157.50 C239.78,152.53 283.07,135.66 299.57,127.27 C301.73,126.17 308.00,123.07 313.50,120.38 L 323.50 115.50 L 324.17 105.35 C325.43,86.36 331.28,80.65 351.65,78.53 C374.75,76.12 382.27,75.14 389.50,73.57 C390.05,73.45 393.20,72.80 396.50,72.12 C428.28,65.60 455.25,54.76 479.98,38.58 C484.12,35.87 487.73,33.38 488.00,33.04 C489.55,31.13 508.59,17.89 510.48,17.42 C514.70,16.36 520.74,19.00 530.13,26.02 C559.53,48.00 585.72,61.00 614.55,67.94 C619.47,69.13 626.20,70.86 629.50,71.78 C632.80,72.71 637.94,73.48 640.93,73.49 L 646.35 73.50 L 659.24 59.50 C672.28,45.34 680.07,38.97 686.80,36.97 C700.82,32.81 717.76,36.82 727.56,46.63 C729.39,48.45 732.80,53.22 735.15,57.22 L 739.42 64.50 L 739.50 86.50 L 735.16 94.05 C732.78,98.21 727.51,105.18 723.46,109.55 C719.41,113.92 716.07,118.30 716.05,119.28 C715.97,122.20 742.11,134.19 776.00,146.79 C786.17,150.57 796.97,154.41 800.00,155.33 C803.03,156.25 810.90,158.74 817.50,160.86 C836.65,167.01 886.84,178.43 906.00,181.00 C910.67,181.63 917.40,183.12 920.94,184.32 C932.91,188.37 941.32,198.87 944.03,213.13 C945.64,221.63 945.11,412.95 943.42,435.50 C940.78,470.50 938.50,492.38 935.55,511.00 C934.28,518.93 930.33,541.01 928.55,550.00 C927.32,556.27 920.66,582.26 917.59,592.82 C912.59,610.00 908.46,621.85 898.55,647.50 C891.19,666.54 877.45,695.27 865.44,716.72 C861.90,723.05 859.00,728.57 859.00,728.99 C859.00,729.41 858.29,730.34 857.43,731.06 C856.56,731.78 854.99,733.97 853.93,735.93 C852.88,737.89 851.00,741.09 849.76,743.03 C848.52,744.97 846.60,748.03 845.50,749.83 C844.40,751.63 841.36,756.07 838.75,759.68 C836.14,763.30 834.00,766.58 834.00,766.98 C834.00,767.37 833.05,768.78 831.88,770.10 C830.72,771.42 829.04,773.62 828.15,775.00 C825.90,778.47 810.89,798.17 809.11,800.00 C808.30,800.83 803.35,806.67 798.12,813.00 C786.16,827.44 735.86,878.01 727.00,884.48 C725.49,885.59 718.67,891.00 711.86,896.50 C699.59,906.40 695.48,909.55 681.07,920.07 C672.11,926.61 671.62,926.96 660.39,934.37 C655.50,937.59 649.03,941.91 646.00,943.96 C635.11,951.33 609.22,965.80 586.00,977.48 C562.58,989.26 554.96,992.74 533.69,1001.37 ZM 494.50 989.94 C508.03,995.92 511.19,996.96 515.00,996.67 C517.82,996.46 526.24,993.42 537.50,988.56 C626.41,950.21 699.26,901.11 762.62,836.82 C806.91,791.88 845.02,737.62 873.14,679.46 C880.84,663.53 882.89,658.90 891.19,638.59 C903.91,607.47 919.20,552.51 923.91,520.97 C924.45,517.41 926.03,506.85 927.43,497.50 C928.83,488.15 930.89,469.08 931.99,455.13 C933.84,431.78 934.00,421.07 933.96,321.13 C933.92,233.00 933.66,211.79 932.57,208.75 C929.31,199.60 921.98,194.30 909.50,192.06 C884.80,187.63 873.32,185.35 858.50,181.91 C805.09,169.52 764.10,155.50 721.10,134.90 C713.18,131.10 706.11,128.00 705.39,128.00 C704.33,128.00 704.15,133.68 704.47,157.75 L 704.87 187.50 L 711.19 190.71 C719.72,195.05 749.51,206.83 767.68,213.05 C794.37,222.18 828.28,231.43 864.00,239.32 L 878.50 242.52 L 878.47 334.51 C878.43,441.93 877.69,456.67 869.90,505.50 C855.52,595.56 821.91,675.00 767.54,747.40 C736.35,788.93 689.95,833.88 645.87,865.26 C634.49,873.36 612.21,887.90 600.00,895.20 C573.55,911.01 519.98,937.00 513.84,937.00 C511.51,937.00 487.85,926.44 468.83,916.92 C417.92,891.43 376.40,863.76 336.00,828.40 C324.72,818.53 291.63,785.27 283.49,775.62 L 278.54 769.74 L 283.02 765.75 C302.25,748.62 311.82,741.44 321.92,736.61 C332.99,731.30 341.95,729.63 355.89,730.27 C372.97,731.05 386.73,735.48 433.50,755.26 C508.42,786.93 510.39,787.20 568.50,773.83 C610.62,764.13 642.88,754.82 652.00,749.71 C665.87,741.96 676.30,734.26 706.35,709.62 C716.33,701.44 728.98,691.09 734.45,686.62 C739.92,682.16 747.88,675.46 752.14,671.75 C765.76,659.87 769.18,648.60 762.25,638.50 C757.89,632.15 749.87,628.67 738.47,628.18 C720.03,627.37 713.81,630.61 663.05,667.49 C640.97,683.53 632.36,687.43 613.50,689.93 C588.74,693.23 565.80,695.17 557.50,694.68 C539.03,693.60 530.52,690.83 489.72,672.60 C463.07,660.70 451.11,657.00 439.22,657.00 C433.59,657.00 431.19,656.58 429.83,655.35 C427.70,653.42 427.35,647.18 429.25,644.84 C433.16,640.03 444.87,636.44 453.95,637.26 C462.06,638.00 477.94,643.73 504.78,655.62 C532.89,668.07 543.21,671.71 554.51,673.17 C568.39,674.96 579.53,672.14 589.58,664.29 C600.67,655.62 600.91,637.80 590.06,627.65 C584.66,622.60 578.88,619.47 561.49,612.20 C520.82,595.18 490.54,580.48 471.27,568.38 C434.33,545.19 415.73,539.33 382.00,540.27 C362.36,540.82 351.70,542.97 336.92,549.36 C319.38,556.94 309.97,563.43 282.50,586.88 C256.65,608.95 247.81,616.48 232.00,629.88 C224.02,636.64 214.72,644.61 211.32,647.59 C207.92,650.56 204.87,653.00 204.54,653.00 C202.66,653.00 184.83,608.61 178.18,587.36 C168.86,557.58 160.60,520.60 155.97,488.00 C150.84,451.83 150.69,448.00 150.27,342.45 L 149.88 242.39 L 165.19 239.10 C219.74,227.37 273.05,210.50 314.00,191.99 L 322.50 188.15 L 322.76 157.56 L 323.03 126.97 L 310.26 133.35 C261.70,157.60 196.99,178.19 134.00,189.43 C112.42,193.29 109.49,194.03 105.06,196.76 C101.89,198.70 99.58,201.24 97.50,205.03 L 94.50 210.50 L 94.50 323.00 C94.50,406.82 94.83,439.45 95.80,451.00 C106.94,583.48 147.08,689.90 222.65,787.23 C271.53,850.21 341.18,909.57 414.50,950.75 C431.47,960.28 458.53,974.09 471.00,979.58 C475.12,981.39 485.70,986.05 494.50,989.94 ZM 491.50 438.67 C502.50,444.32 512.31,448.96 513.30,448.97 C515.33,449.00 542.62,435.64 554.00,429.03 C578.19,415.00 599.59,398.51 619.53,378.55 C653.57,344.47 673.87,308.71 685.90,261.65 C691.70,238.97 694.00,209.93 694.00,159.16 L 694.00 125.81 L 708.29 110.61 C716.14,102.25 723.81,93.30 725.31,90.73 C734.76,74.61 726.65,53.91 708.15,46.94 C701.22,44.33 695.48,44.77 687.54,48.53 C682.96,50.69 679.19,54.18 666.28,68.17 L 650.59 85.19 L 644.05 84.50 C633.12,83.36 611.35,78.16 595.50,72.90 C569.86,64.40 549.18,53.26 524.55,34.68 C519.68,31.01 514.75,28.01 513.60,28.02 C512.44,28.03 508.35,30.61 504.50,33.74 C478.15,55.21 443.70,71.74 408.00,80.02 C392.74,83.56 381.62,85.37 359.71,87.89 C342.10,89.92 339.50,90.79 336.26,95.72 C334.65,98.19 334.47,102.77 334.18,150.95 C333.79,213.88 334.70,227.47 341.51,260.50 C346.25,283.52 360.35,316.22 375.56,339.50 C392.82,365.91 419.65,393.25 446.03,411.29 C466.34,425.19 472.61,428.96 491.50,438.67 ZM 519.86 404.49 C516.91,405.86 514.05,406.98 513.50,406.97 C511.73,406.96 495.82,398.69 484.68,392.00 C451.61,372.13 421.67,343.58 403.93,314.99 C388.35,289.88 379.04,263.43 373.84,229.50 C371.90,216.81 371.69,211.21 371.60,169.50 L 371.50 123.50 L 386.50 121.37 C407.21,118.44 420.01,115.53 437.25,109.85 C463.06,101.35 476.95,94.84 499.50,80.70 C505.55,76.91 511.26,73.40 512.20,72.90 C513.48,72.21 516.32,73.56 524.03,78.57 C545.56,92.54 569.00,103.32 594.44,110.96 C603.27,113.61 612.44,116.10 614.80,116.49 C617.17,116.88 618.97,117.57 618.80,118.03 C618.64,118.49 608.33,129.81 595.90,143.18 C567.30,173.96 539.04,204.64 523.09,222.23 C516.26,229.75 510.04,236.15 509.26,236.45 C508.49,236.75 507.10,236.58 506.18,236.07 C505.25,235.57 495.13,225.69 483.67,214.13 C461.35,191.60 457.82,189.06 450.66,190.40 C443.46,191.75 418.88,213.33 416.86,220.07 C415.84,223.47 415.98,224.31 418.18,228.04 C421.39,233.48 499.53,315.71 503.38,317.70 C505.34,318.71 507.87,319.05 510.89,318.71 C515.09,318.24 516.16,317.46 524.49,308.85 C541.35,291.42 607.06,220.86 636.49,188.56 L 655.48 167.73 L 656.31 172.11 C657.28,177.25 656.51,205.89 655.00,221.00 C650.66,264.27 635.95,301.68 610.95,333.00 C603.00,342.96 581.54,364.26 571.43,372.23 C556.40,384.07 535.11,397.39 519.86,404.49 ZM 612.00 670.62 C612.00,671.99 625.53,667.77 632.50,664.24 C635.80,662.56 648.40,654.10 660.50,645.44 C689.49,624.68 697.80,619.34 708.00,614.93 C718.69,610.31 724.82,609.00 735.83,609.00 L 744.56 609.00 L 765.17 588.25 C778.03,575.30 786.61,565.84 788.00,563.07 C790.45,558.20 791.64,549.21 790.58,543.58 C789.16,536.01 779.92,529.00 771.38,529.00 C764.93,529.00 759.74,532.28 753.00,540.61 C740.06,556.62 730.05,565.33 715.84,572.97 C699.66,581.65 685.95,585.33 669.50,585.40 C634.08,585.55 600.04,562.65 580.80,525.72 C574.98,514.55 567.70,508.97 559.00,509.03 C551.41,509.08 541.59,517.88 540.42,525.68 C538.93,535.65 540.67,539.76 560.31,572.50 L 573.50 594.50 L 585.73 600.50 C601.84,608.41 607.66,613.48 612.99,624.28 C620.01,638.51 620.48,651.68 614.45,664.87 C613.10,667.82 612.00,670.41 612.00,670.62 ZM 655.29 563.56 C664.11,565.57 680.64,564.80 688.68,562.01 C704.19,556.62 717.35,545.04 724.42,530.57 C729.65,519.86 731.00,514.01 731.00,502.06 C731.00,463.03 692.61,433.25 654.77,442.93 C615.52,452.97 596.32,494.19 613.73,531.00 C620.62,545.57 638.77,559.79 655.29,563.56 ZM 487.47 885.64 C512.46,898.35 513.56,898.79 516.50,897.56 C530.53,891.70 570.66,870.30 591.00,857.83 C639.74,827.95 683.50,791.02 720.57,748.50 C733.54,733.62 754.09,704.85 764.31,687.24 L 767.95 680.98 L 757.22 689.87 C741.17,703.18 738.90,705.48 729.25,718.20 C704.26,751.14 665.20,790.00 632.00,814.97 C627.33,818.48 621.92,822.55 620.00,824.00 C601.04,838.36 558.40,863.76 526.07,879.96 L 514.00 886.02 L 502.89 880.44 C434.55,846.17 389.22,814.48 344.69,769.85 L 326.89 752.00 L 322.94 755.17 C320.77,756.91 319.00,758.91 319.00,759.62 C319.00,763.05 363.82,806.00 381.48,819.50 C384.36,821.70 389.57,825.70 393.06,828.39 C405.75,838.19 431.99,855.27 454.00,868.07 C458.12,870.47 473.19,878.38 487.47,885.64 ZM 781.92 647.95 C781.97,652.62 782.35,655.04 782.94,654.45 C783.46,653.93 786.58,647.62 789.88,640.43 C815.58,584.45 830.19,531.48 836.90,470.00 C841.00,432.52 841.50,418.93 841.50,345.78 C841.50,275.62 841.48,275.04 839.43,272.99 C837.94,271.49 829.89,269.00 810.43,264.02 C773.02,254.43 727.96,239.16 709.98,229.99 C704.20,227.04 703.22,227.35 702.47,232.38 C701.38,239.64 701.63,239.94 713.00,244.73 C742.34,257.09 774.80,267.62 815.82,278.08 L 829.14 281.47 L 828.73 360.49 C828.30,442.84 828.27,443.55 823.44,479.00 C819.73,506.31 813.69,536.66 808.32,555.00 C806.95,559.67 804.99,566.42 803.98,570.00 C800.70,581.52 791.94,605.12 785.57,619.57 C779.70,632.89 779.44,633.83 780.61,637.07 C781.29,638.96 781.88,643.85 781.92,647.95 ZM 224.68 607.25 C225.57,609.86 226.57,611.99 226.90,611.97 C227.23,611.95 229.52,610.19 232.00,608.04 L 236.50 604.14 L 234.72 599.32 C216.92,551.05 207.66,509.12 201.31,448.00 C200.08,436.17 199.56,416.40 199.10,364.50 C198.77,327.10 198.65,293.12 198.82,289.00 L 199.15 281.50 L 209.32 279.09 C238.89,272.11 275.96,260.37 305.24,248.74 L 325.99 240.50 L 325.99 234.72 C326.00,230.88 325.56,228.77 324.70,228.44 C323.98,228.16 320.72,229.13 317.45,230.59 C285.90,244.64 256.06,254.49 208.18,266.64 C198.10,269.19 189.22,271.93 188.43,272.71 C187.29,273.86 186.96,278.70 186.79,296.82 C186.41,338.78 187.11,411.35 188.08,430.00 C190.96,485.62 201.11,539.65 217.48,586.50 C220.55,595.30 223.79,604.64 224.68,607.25 Z"
       fill="rgb(24,58,89)"
       id="path1" />
  </g>
  <path
     style="fill:#ffffff;stroke-width:1.20379"
     d="m 491.24005,437.55214 c -41.66852,-21.49909 -74.77826,-47.34402 -99.65722,-77.79079 -22.69332,-27.772 -42.29446,-67.58702 -49.69691,-100.94734 -6.04235,-27.23081 -6.58986,-35.51973 -6.61127,-100.08842 -0.0197,-59.286861 0.0461,-61.038959 2.38735,-63.637869 3.4978,-3.882673 5.76196,-4.480525 27.38357,-7.230612 59.45593,-7.562296 98.99106,-22.409086 137.53513,-51.649143 5.29666,-4.018117 10.23957,-7.308239 10.98427,-7.311383 0.74469,-0.0031 7.02007,4.00804 13.9453,8.913742 23.01108,16.300615 38.37958,24.748136 59.33546,32.614599 15.39322,5.778338 46.59067,13.67238 56.97784,14.417378 l 8.02661,0.575692 15.34957,-16.720841 c 15.69085,-17.09259 21.02339,-21.063887 30.30688,-22.570391 9.13665,-1.482675 23.79546,7.90694 28.53167,18.275795 2.69493,5.89994 2.88915,16.008031 0.42108,21.914945 -2.17492,5.205335 -6.08159,10.06331 -21.32421,26.516828 l -11.41162,12.3182 -0.68383,45.46354 c -0.92304,61.36694 -3.07649,78.33564 -14.19823,111.87916 -5.74628,17.33095 -17.46726,41.52947 -26.95119,55.64202 -27.14302,40.39009 -68.16533,75.49426 -116.80737,99.95599 -10.59332,5.32731 -20.34399,9.67967 -21.66815,9.67193 -1.32417,-0.008 -11.3028,-4.6036 -22.17473,-10.21303 z m 40.83341,-38.7155 c 25.56435,-13.7842 51.11535,-34.05355 71.84719,-56.99563 30.62764,-33.89289 48.03445,-76.2712 52.09889,-126.83906 1.41214,-17.56926 1.51936,-42.34114 0.19781,-45.70209 -0.72154,-1.83501 -7.26845,4.68987 -36.23559,36.11359 -54.63901,59.27272 -102.33069,109.88147 -104.78649,111.19578 -2.80549,1.50145 -9.1131,1.53832 -11.85798,0.0693 -1.15202,-0.61654 -16.19798,-15.91967 -33.43546,-34.00695 -54.45753,-57.14227 -54.7429,-57.49136 -51.73259,-63.28157 2.20262,-4.23665 17.67473,-19.14051 25.15938,-24.23535 6.34867,-4.32155 10.70115,-4.98498 15.65972,-2.38691 1.80262,0.94449 13.25332,11.31594 25.44597,23.04768 12.19267,11.73173 22.99861,21.33042 24.01321,21.33042 1.0146,0 14.17292,-13.40716 29.24071,-29.7937 15.0678,-16.38654 39.33448,-42.70141 53.92597,-58.4775 14.59148,-15.77608 26.69933,-29.42408 26.90633,-30.32889 0.24147,-1.05547 -1.48436,-2.12335 -4.81514,-2.97944 -34.069,-8.75655 -57.29517,-18.343097 -85.82425,-35.423775 -7.27138,-4.353464 -13.80254,-7.915388 -14.51367,-7.915388 -0.71113,0 -8.57526,4.403396 -17.47584,9.785325 -8.90057,5.381929 -20.5165,11.811346 -25.81315,14.287593 -23.75124,11.103965 -56.57506,20.647645 -85.16787,24.762955 l -14.14449,2.03579 0.0285,39.26767 c 0.0332,45.76513 1.03144,61.26779 5.29994,82.31018 7.09682,34.98519 21.18342,65.62346 41.64506,90.57775 21.37342,26.06628 50.92919,49.64845 83.91907,66.95798 12.9299,6.78421 11.21997,6.974 30.41476,-3.37577 z"
     id="path2" />
  <path
     style="fill:#ffffff;stroke-width:1.20379"
     d="m 491.24005,437.55214 c -42.88284,-22.12564 -75.97573,-48.24452 -101.39579,-80.02767 -12.59381,-15.74626 -19.22952,-26.4687 -29.42661,-47.54955 -21.82731,-45.12446 -26.34502,-73.96134 -25.58146,-163.28835 0.40109,-46.92259 0.51695,-49.038208 2.82581,-51.600011 3.49843,-3.881695 5.76401,-4.479733 27.38357,-7.228391 59.31412,-7.54105 99.07265,-22.472042 137.53513,-51.650202 5.29666,-4.018117 10.22308,-7.308239 10.94762,-7.311383 0.72452,-0.0031 6.95411,3.931482 13.84354,8.743613 25.05264,17.498804 38.60535,24.965268 59.47387,32.765361 14.30378,5.346369 45.09373,13.275932 56.14491,14.459412 l 7.86023,0.84176 7.07672,-7.64262 c 19.10809,-20.636085 27.57875,-28.286684 33.56103,-30.311898 7.89337,-2.672191 10.98717,-2.52401 18.14329,0.868995 11.62182,5.510365 18.65869,15.775005 18.65869,27.217319 0,10.778656 -2.85795,15.327071 -23.51414,37.422765 l -11.052,11.82221 -0.6843,45.49806 c -0.92352,61.40477 -3.07532,78.36531 -14.19867,111.91367 -18.06578,54.48696 -56.04669,100.98828 -112.92063,138.25258 -13.82392,9.05756 -48.7714,27.04031 -52.50608,27.0178 -1.32417,-0.008 -11.3028,-4.60404 -22.17473,-10.21347 z m 33.84157,-35.00195 c 24.12719,-12.15027 47.8517,-29.50417 68.32732,-49.97978 21.03365,-21.03364 32.14273,-36.45066 42.83698,-59.44849 13.2686,-28.53393 19.1193,-55.91886 20.59439,-96.39448 0.76191,-20.90662 0.29662,-28.19738 -1.79956,-28.19738 -0.53725,0 -19.0213,19.54963 -41.07566,43.44361 -57.4445,62.23613 -96.12314,103.2191 -98.73434,104.61656 -2.85221,1.52646 -9.13989,1.56198 -11.93253,0.0674 -1.17353,-0.62804 -16.48966,-16.20202 -34.03585,-34.60885 -53.55575,-56.1826 -54.10798,-56.85982 -51.09313,-62.65875 2.20981,-4.2505 17.68362,-19.14645 25.2159,-24.27424 7.16682,-4.87898 12.5251,-5.17074 17.99538,-0.97985 2.13555,1.63609 13.20055,11.98264 24.58891,22.99232 11.38836,11.00968 21.46834,20.01761 22.39999,20.01761 1.77574,0 4.81898,-3.21276 68.84602,-72.68098 38.68553,-41.97313 42.30776,-46.11796 41.23798,-47.18774 -0.28234,-0.28234 -7.50957,-2.43022 -16.06051,-4.77307 -26.54655,-7.27343 -48.40101,-16.746458 -74.38454,-32.24271 l -14.29728,-8.526715 -4.3614,2.423847 c -2.39879,1.333116 -11.46959,6.618409 -20.15735,11.745096 -30.08665,17.754252 -64.03907,29.186252 -104.28173,35.112342 l -14.14449,2.0829 0.0273,38.66578 c 0.015,21.26618 0.54355,45.30396 1.17451,53.4173 3.11987,40.11745 16.87927,80.05058 37.70646,109.4333 14.10299,19.8963 40.76624,45.40376 63.41353,60.6647 13.75483,9.26873 36.58294,21.57034 40.05594,21.58536 1.83725,0.008 7.20923,-1.93384 11.93774,-4.31508 z"
     id="path3" />
  <path
     style="fill:#ffffff;stroke-width:1.20379"
     d="m 491.24005,437.55214 c -33.04184,-17.04812 -60.29112,-36.44163 -81.95277,-58.32638 -21.05716,-21.27404 -34.18697,-39.40367 -46.6655,-64.43569 -23.88997,-47.92345 -28.57081,-76.24265 -27.78559,-168.1035 0.51424,-60.159776 -1.853,-54.726354 25.357,-58.200806 63.51718,-8.110526 101.13652,-21.707228 139.97994,-50.592744 5.95874,-4.431158 11.5178,-8.329878 12.35348,-8.663823 0.83567,-0.333944 10.43979,5.404734 21.34249,12.752618 22.78702,15.357328 41.13604,24.670106 61.89222,31.412492 15.60903,5.070404 37.46242,10.304829 48.29041,11.566741 l 6.64698,0.774652 15.49879,-16.437352 c 8.52434,-9.040543 17.76539,-17.765666 20.53568,-19.38916 7.52128,-4.407762 14.6286,-5.006237 21.81071,-1.836578 12.08464,5.333274 19.67208,15.915389 19.72027,27.503633 0.0458,11.021025 -2.43078,15.010913 -23.31619,37.563157 l -11.22585,12.12177 -0.68311,45.40922 c -0.92367,61.39869 -3.07164,78.27011 -14.26136,112.01642 -21.38766,64.50158 -72.37104,119.56575 -144.14082,155.6781 -10.32245,5.19394 -19.86193,9.43062 -21.19886,9.41486 -1.33692,-0.0158 -11.32599,-4.6182 -22.19792,-10.22763 z m 36.78192,-36.71449 c 14.25571,-7.41294 31.76391,-18.82226 43.77643,-28.52714 14.83073,-11.98171 40.72927,-39.42588 49.16901,-52.1034 24.51349,-36.82231 36.21725,-80.54134 36.25406,-135.42594 0.0113,-16.88874 -0.8888,-18.45935 -6.88748,-12.01799 -2.47651,2.65927 -28.10982,30.28616 -56.96291,61.39309 -28.85309,31.10694 -58.37595,62.65993 -65.60634,70.11775 -12.24849,12.63375 -13.45984,13.55851 -17.73951,13.54259 -2.52634,-0.009 -5.55349,-0.53094 -6.72701,-1.15899 -1.17353,-0.62804 -16.48966,-16.20202 -34.03585,-34.60885 -53.55575,-56.1826 -54.10798,-56.85982 -51.09313,-62.65875 2.20981,-4.2505 17.68362,-19.14645 25.2159,-24.27424 7.18454,-4.89104 12.53345,-5.17472 17.99538,-0.95434 2.13555,1.65012 13.25855,11.99666 24.71777,22.99232 11.45923,10.99566 21.53954,19.9921 22.40069,19.9921 0.86116,0 9.90336,-9.05175 20.09377,-20.115 10.19042,-11.06325 28.5672,-30.97086 40.83729,-44.23914 37.31085,-40.34615 49.31602,-53.66646 49.31602,-54.71851 0,-0.55313 -6.36502,-2.74892 -14.14449,-4.87955 -27.39995,-7.50424 -50.04046,-17.160093 -75.00384,-31.988064 -8.31352,-4.938137 -15.65219,-8.978429 -16.30816,-8.978429 -0.65597,0 -6.3132,3.14549 -12.5716,6.98998 C 462.43838,102.732 430.29944,114.33202 384.91061,121.01593 l -14.14449,2.0829 0.0179,36.8601 c 0.01,20.27306 0.54785,44.44395 1.19562,53.7131 3.192,45.67506 19.06941,88.23789 44.90541,120.37862 14.9293,18.57248 39.13582,40.09266 61.05826,54.28226 12.61909,8.16788 32.55019,18.49021 35.76164,18.52096 1.48374,0.0142 7.92641,-2.69308 14.31707,-6.01622 z"
     id="path4" />
  <path
     style="fill:#ffffff;stroke-width:1.20379"
     d="m 657.93293,563.29618 c -9.20332,-1.53976 -22.69878,-8.85224 -31.45636,-17.04454 -15.48277,-14.48336 -21.7518,-36.01753 -16.71101,-57.40245 5.96759,-25.31679 28.40636,-44.38093 54.96125,-46.69549 26.68997,-2.32632 53.48427,15.36867 62.36721,41.18738 7.54699,21.9357 1.9623,45.39772 -14.87597,62.49604 -14.2604,14.48062 -34.04839,20.84479 -54.28512,17.45906 z"
     id="path5" />
  <path
     style="fill:#ffffff;stroke-width:1.20379"
     d="m 615.38117,664.92538 c 2.22484,-4.85166 2.69057,-8.02467 2.7234,-18.55467 0.0384,-12.30467 -0.10273,-12.99017 -4.50822,-21.90407 -5.61615,-11.36351 -10.47955,-15.69363 -27.29105,-24.29857 l -12.70122,-6.5011 -14.34252,-24.39275 c -16.20429,-27.55912 -19.27645,-34.44663 -18.37675,-41.19914 0.89261,-6.69931 5.79114,-13.33693 12.09452,-16.38834 4.79293,-2.32022 6.01299,-2.461 10.61256,-1.22456 5.9608,1.60236 12.83761,8.13214 16.79469,15.94714 8.48677,16.7609 27.64742,37.5427 42.66036,46.26977 30.6519,17.81806 63.42485,17.50658 96.34776,-0.9157 7.59392,-4.24924 13.00299,-8.8624 26.98409,-23.01356 10.83357,-10.96533 18.75067,-18.01632 20.8096,-18.53308 7.19876,-1.80677 17.46082,2.85236 20.91688,9.49659 2.51052,4.82643 2.31402,16.32752 -0.37581,21.99591 -1.09018,2.29738 -11.07564,13.53057 -22.18992,24.96266 l -20.20776,20.7856 -13.63668,1.31 c -21.83162,2.09724 -24.73627,3.63681 -84.33791,44.70197 -9.78986,6.74515 -18.27025,11.58405 -23.47383,13.39416 -4.48072,1.55866 -8.83059,3.07699 -9.66637,3.37407 -0.96509,0.34304 -0.54028,-1.59545 1.16418,-5.31233 z"
     id="path6" />
  <path
     style="fill:#ffffff;stroke-width:1.20379"
     d="m 781.98711,642.53153 -0.83737,-10.32013 6.63523,-16.19461 c 18.62254,-45.45208 27.57703,-79.04191 35.69565,-133.90045 4.75824,-32.15205 5.88046,-58.02982 5.90639,-136.19911 l 0.0216,-65.17572 -8.72745,-2.09965 c -37.2962,-8.97272 -89.32307,-26.02889 -112.2046,-36.78448 -5.08658,-2.39097 -5.46549,-2.88879 -5.46549,-7.18061 0,-2.53635 0.48335,-4.91027 1.07412,-5.27538 0.59077,-0.36511 7.49749,2.09669 15.34827,5.47067 19.11289,8.21402 54.05503,19.74848 87.08929,28.74831 14.8892,4.0564 28.4318,8.02577 30.09466,8.82084 2.96432,1.41733 3.04098,1.79802 3.92469,19.48964 1.13149,22.652 0.007,126.91918 -1.60381,148.65487 -2.77293,37.4269 -8.38174,73.79833 -16.24305,105.33128 -7.53971,30.24292 -24.14726,75.96473 -36.25514,99.81309 l -3.61564,7.12158 z"
     id="path7" />
  <path
     style="fill:#ffffff;stroke-width:1.20379"
     d="m 221.53871,596.17507 c -16.89376,-47.56626 -26.47053,-92.05855 -31.54658,-146.56096 -1.10198,-11.83214 -1.57406,-40.51751 -1.5846,-96.28518 l -0.015,-79.43217 3.00946,-1.42544 c 1.65521,-0.78399 15.46865,-4.75307 30.69655,-8.82017 33.0049,-8.81504 63.93149,-18.98589 85.75457,-28.20216 8.76424,-3.7013 16.21267,-6.72963 16.55205,-6.72963 0.3394,0 0.61273,2.57309 0.60741,5.71798 l -0.01,5.71799 -15.94048,6.30771 c -32.15372,12.72336 -73.19476,25.83374 -101.10836,32.29863 l -9.32934,2.1607 0.0343,63.88151 c 0.0378,70.57079 1.06621,97.96737 4.72491,125.87649 5.74224,43.80261 13.28671,77.544 25.22854,112.83046 l 7.01922,20.74084 -3.97771,3.03394 c -2.18774,1.66867 -4.22834,3.03395 -4.53466,3.03395 -0.30633,0 -2.81758,-6.36502 -5.58055,-14.14449 z"
     id="path8" />
  <path
     style="fill:#ffffff;stroke-width:1.20379"
     d="m 483.32012,882.5609 c -51.75068,-26.55551 -88.3255,-51.03174 -123.18609,-82.43738 -16.31787,-14.70065 -39.92692,-38.4385 -39.92692,-40.14475 0,-0.64562 1.32231,-2.4161 2.93847,-3.9344 l 2.93848,-2.76056 23.24387,21.98764 c 12.78413,12.0932 30.28602,27.64337 38.89309,34.55594 28.60094,22.97015 70.09371,48.97685 109.27864,68.49332 l 16.58711,8.26138 17.11891,-8.68228 c 84.7976,-43.00726 145.04901,-91.45614 199.83843,-160.69248 8.28665,-10.47167 30.6119,-31.7911 31.92057,-30.48244 1.27609,1.27609 -20.23805,32.83262 -35.72434,52.39978 -11.3664,14.36163 -44.70634,48.42335 -62.14851,63.494 -16.1067,13.91673 -45.06334,35.77199 -61.43047,46.36512 -27.04642,17.505 -83.83604,47.85668 -89.45639,47.8107 -1.75877,-0.0144 -15.65695,-6.41949 -30.88485,-14.23359 z"
     id="path9" />
  <path
     style="fill:#ffffff;stroke-width:1.20379"
     d="m 491.24005,437.55214 c -33.04184,-17.04812 -60.29112,-36.44163 -81.95277,-58.32638 -21.05716,-21.27404 -34.18697,-39.40367 -46.6655,-64.43569 -23.88715,-47.9178 -28.55762,-76.17919 -27.78082,-168.1038 0.39655,-46.926595 0.512,-49.038277 2.82104,-51.600003 3.45131,-3.828992 5.49602,-4.382868 26.46988,-7.170215 62.86423,-8.354424 99.06384,-22.1035 140.21427,-53.255188 4.29303,-3.249904 8.63141,-5.689119 9.64085,-5.420479 1.00944,0.268639 10.47658,6.309695 21.0381,13.424567 20.51429,13.819663 39.12583,23.473189 56.63577,29.376138 14.72433,4.963859 36.4814,10.491429 48.59339,12.345565 l 10.00374,1.531399 17.0472,-17.595518 c 9.37597,-9.677534 18.7984,-18.454956 20.93877,-19.505382 7.24856,-3.557388 13.8257,-3.682464 20.96028,-0.398599 12.01253,5.529047 19.01145,15.50152 19.05991,27.157688 0.0458,11.022676 -2.19658,14.639166 -23.35795,37.670857 l -11.52541,12.54407 -0.0116,31.90257 c -0.0289,79.24526 -5.4601,110.30262 -27.05122,154.68876 -19.67935,40.45595 -52.14547,76.08173 -95.97244,105.3126 -17.53722,11.69665 -52.47705,30.1399 -56.99392,30.08467 -1.2894,-0.0158 -11.2396,-4.6182 -22.11153,-10.22763 z m 36.53593,-36.58658 c 25.9287,-13.48287 47.65535,-30.06966 70.50572,-53.82621 35.81963,-37.24014 53.20938,-77.75761 57.74553,-134.54497 1.40828,-17.62981 1.50171,-38.75452 0.18624,-42.10179 -0.8369,-2.12951 -1.05323,-2.09709 -4.01683,0.60189 -1.72277,1.56893 -17.36341,18.29117 -34.75698,37.16052 -47.83023,51.88846 -98.4505,105.68645 -101.36383,107.72702 -2.91644,2.04275 -9.55754,2.39894 -12.76116,0.68441 -2.15121,-1.15129 -60.46957,-61.81341 -75.29089,-78.31678 -10.72284,-11.93974 -12.11332,-14.61496 -9.85454,-18.95963 2.20981,-4.2505 17.68362,-19.14645 25.2159,-24.27424 7.26284,-4.94435 12.50808,-5.17836 18.23091,-0.81333 2.26509,1.72767 13.3915,12.07421 24.72535,22.99232 11.33384,10.9181 21.13492,19.85109 21.78017,19.85109 1.85404,0 8.09314,-6.47201 46.41862,-48.15144 53.74052,-58.44347 64.20587,-70.00835 64.20587,-70.95157 0,-0.47196 -6.36502,-2.62963 -14.14449,-4.79482 -27.79739,-7.7366 -51.68017,-17.968014 -75.99097,-32.554644 -7.76062,-4.656421 -14.54808,-8.466219 -15.08325,-8.466219 -0.53518,0 -8.82681,4.682494 -18.42584,10.405541 -35.22879,21.003752 -70.63034,33.128242 -113.80226,38.975522 l -10.53313,1.42663 0.0179,36.29019 c 0.0261,53.09331 1.62979,71.70396 8.50235,98.67002 12.94258,50.78312 45.58055,94.70645 94.90103,127.71529 14.26732,9.54872 35.8988,21.1266 39.51755,21.1511 1.48374,0.01 7.81571,-2.64312 14.07108,-5.8959 z"
     id="path10" />
  <path
     style="fill:#ffffff;stroke-width:1.20379"
     d="m 491.14473,437.50641 c -34.93356,-18.01809 -67.04634,-41.55105 -87.96615,-64.46354 -19.55006,-21.41226 -28.91904,-34.94003 -41.20742,-59.49893 -13.60448,-27.18917 -19.43603,-45.91987 -24.53505,-78.80565 -1.84892,-11.92445 -2.14892,-22.37835 -2.16408,-75.41034 -0.0171,-59.88619 0.0481,-61.639754 2.38997,-64.239755 3.4157,-3.792221 5.24283,-4.295166 25.98903,-7.153888 64.19653,-8.845958 99.76704,-22.29008 140.43993,-53.080261 4.33245,-3.279749 8.52178,-5.963179 9.30962,-5.963179 0.78784,0 7.64613,4.271404 15.24063,9.49201 16.3888,11.265973 32.91085,20.869891 46.16666,26.83572 17.19119,7.736965 46.3082,16.228383 66.01404,19.251733 l 9.43609,1.447724 17.0472,-17.595518 c 9.37597,-9.677534 18.7984,-18.454956 20.93877,-19.505382 7.24856,-3.557388 13.8257,-3.682464 20.96028,-0.398599 12.01253,5.529047 19.01145,15.50152 19.05991,27.157688 0.0458,11.007889 -2.43266,15.036192 -22.94929,37.300547 l -11.90473,12.91886 -0.0147,32.2478 c -0.0361,79.30017 -5.79236,111.57738 -27.84675,156.14472 -19.89329,40.20021 -54.17317,77.03542 -98.56545,105.91285 -15.47787,10.06844 -49.5742,27.72292 -53.45638,27.67875 -1.38582,-0.0158 -11.45779,-4.63878 -22.38215,-10.27336 z m 30.36128,-33.45044 c 34.92209,-15.51899 80.32421,-54.59358 101.45033,-87.31156 16.13212,-24.98377 26.7266,-54.39954 31.23525,-86.72513 2.31204,-16.57663 3.76207,-54.97406 2.22493,-58.91712 -1.06051,-2.72042 -1.58484,-2.35164 -11.98094,8.4265 -5.97953,6.1993 -24.61503,26.16829 -41.41222,44.37556 -45.40594,49.21767 -85.35842,91.38328 -87.85068,92.7171 -1.21083,0.64802 -4.34851,1.17821 -6.9726,1.17821 -4.68429,0 -5.39426,-0.65144 -39.03009,-35.81263 -40.35456,-42.18463 -50.10396,-52.89393 -51.56828,-56.6456 -1.58093,-4.05046 0.8522,-7.86641 11.7357,-18.4055 16.40658,-15.88736 24.03201,-18.92337 32.09076,-12.77667 2.16173,1.64885 13.33789,11.99539 24.83588,22.99232 11.498,10.99693 21.34855,19.99441 21.89011,19.99441 1.30832,0 17.24035,-16.6619 52.94851,-55.37416 50.40579,-54.6464 57.77246,-62.94932 56.75436,-63.96742 -0.54351,-0.54352 -8.33751,-3.13727 -17.31999,-5.7639 -27.76882,-8.12007 -47.54335,-16.765643 -73.25391,-32.027167 -7.21429,-4.282326 -13.45505,-7.786046 -13.86834,-7.786046 -0.4133,0 -8.16622,4.421635 -17.22873,9.825857 -9.06251,5.404221 -21.62348,12.223963 -27.91326,15.15498 -23.78891,11.085556 -56.66932,20.338086 -87.13782,24.520536 l -10.6974,1.46845 0.67788,47.64509 c 0.73566,51.70683 1.63171,61.16826 8.20867,86.67629 9.72093,37.70152 26.03473,65.93769 54.64076,94.57303 15.73378,15.74989 31.32382,28.36218 46.94766,37.98048 12.71251,7.82604 29.83141,16.75869 32.16696,16.78472 1.13976,0.0127 4.93168,-1.24758 8.4265,-2.80063 z"
     id="path11" />
  <path
     style="fill:#ffffff;stroke-width:1.20379"
     d="M 488.50901,986.58135 C 407.74522,951.1074 345.29764,910.44256 284.58175,853.78725 213.51624,787.47449 157.30598,699.466 127.15891,607.31009 113.3691,565.1563 105.31995,527.57385 98.53853,473.678 96.099645,454.29478 95.93772,446.88289 95.441439,331.9126 l -0.523659,-121.31286 3.280096,-5.18472 c 5.612024,-8.8707 8.008134,-9.82825 40.977584,-16.37581 67.36697,-13.37873 115.69861,-28.8083 169.41972,-54.08618 7.18613,-3.38135 13.2803,-6.14792 13.54259,-6.14792 0.76464,0 0.29186,44.43405 -0.55658,52.31104 l -0.77219,7.16906 -14.69275,6.31408 c -35.94578,15.44737 -85.02332,31.04341 -129.76158,41.23611 -11.91749,2.71515 -22.88699,5.21448 -24.37667,5.55406 l -2.70852,0.61742 0.0635,59.86542 c 0.0894,84.29517 1.78895,155.40042 4.12108,172.41943 9.0053,65.71723 21.28352,112.10394 43.71977,165.17177 3.11526,7.36844 6.20999,13.57749 6.87716,13.79785 0.66717,0.22037 21.25191,-16.70559 45.74386,-37.61326 52.49843,-44.81549 66.08055,-55.32489 80.64443,-62.40002 15.35861,-7.46121 25.47666,-10.24982 42.93447,-11.83308 26.84446,-2.43454 49.63109,1.62455 71.67981,12.76864 4.49454,2.27169 16.0266,8.82801 25.6268,14.56961 20.35973,12.17657 44.00889,23.92475 77.6442,38.57126 37.78897,16.45523 41.37105,18.66856 46.58101,28.7819 3.12954,6.07494 2.61361,17.16758 -1.02696,22.07983 -7.62097,10.283 -20.42052,15.42133 -35.86145,14.39646 -11.76271,-0.78074 -21.59933,-4.05716 -54.40077,-18.12002 -35.08343,-15.04121 -44.70836,-18.07311 -55.19813,-17.38773 -13.27902,0.86763 -21.0742,5.82652 -21.0742,13.40633 0,4.88625 2.65212,6.35513 12.90147,7.1455 12.6858,0.97826 25.02338,5.04433 54.51055,17.9649 49.24085,21.57616 55.89906,22.52492 111.24593,15.8521 27.67716,-3.33684 32.43744,-5.53035 69.91447,-32.21607 28.66485,-20.41096 39.04081,-26.66571 48.11282,-29.00294 9.01611,-2.32281 13.95568,-2.32706 22.8147,-0.0196 12.22557,3.18435 17.94288,9.40006 17.95522,19.52044 0.0129,10.56007 -8.55336,18.88205 -71.10781,69.08024 -38.3791,30.79816 -46.08074,34.584 -96.01162,47.19595 -51.51033,13.01091 -59.83624,14.55025 -78.84799,14.57785 -17.37684,0.0252 -17.52071,0.003 -32.17264,-5.01467 -8.09476,-2.77201 -30.30461,-11.50096 -49.35523,-19.39768 -53.5998,-22.21779 -62.26668,-25.04402 -80.58727,-26.27923 -24.57753,-1.65707 -42.8885,6.73178 -70.8027,32.43699 l -8.41173,7.74608 8.59002,9.50532 c 15.7092,17.38305 51.36888,51.51059 66.61707,63.75481 27.87564,22.38401 54.5762,40.55584 84.86692,57.75858 14.85018,8.43373 57.19483,29.32968 69.53721,34.31474 l 6.94033,2.80318 9.91268,-3.98371 c 15.73721,-6.32449 60.21501,-28.8558 77.32469,-39.17071 52.43476,-31.61131 88.79993,-60.91899 132.23713,-106.57347 32.49723,-34.15607 63.96042,-79.51129 86.86308,-125.21596 29.81715,-59.50331 47.52374,-123.31852 56.10758,-202.21386 0.87082,-8.00388 1.57615,-50.48154 1.92309,-115.81561 l 0.5479,-103.17587 -2.81155,-0.64524 c -75.3844,-17.30021 -115.2795,-29.54406 -159.00281,-48.79808 l -11.73691,-5.16848 v -29.32083 c 0,-16.12645 0.21461,-29.32083 0.4769,-29.32083 0.2623,0 6.35646,2.75951 13.5426,6.13223 52.60177,24.68804 100.8895,40.13029 166.93226,53.38437 36.09432,7.24375 39.58193,8.67833 44.17769,18.17193 2.50745,5.17969 2.51257,5.49273 2.05895,125.96222 -0.49169,130.57494 -0.48899,130.51228 -7.6129,176.74566 -17.62444,114.38064 -65.54902,217.16903 -141.99861,304.55789 -14.59173,16.67968 -48.12915,49.33645 -66.21266,64.47399 -51.07334,42.75304 -107.15016,77.5276 -170.08452,105.47344 -20.67468,9.18053 -28.31327,11.8407 -33.77299,11.7616 -2.63562,-0.0382 -12.17545,-3.5105 -24.41637,-8.88709 z"
     id="path12" />
</svg>
